<svg viewBox="0 0 710 900" fill="#00FF00" width="710px" height="900px" stroke-width="290px" stroke="#000000" xmlns="http://www.w3.org/2000/svg">
<g transform="translate(-55.000000,518.000000) scale(0.08,-0.08) rotate(12)">
	<path d="M6367,4904.5c-172.2-218.6-249.6-446.9-263.1-779.7c-11.6-263.1,17.4-476,102.5-750.7l54.2-170.3L5254.4,2197.7L4248.3,1191.6l-232.2,114.2c-892,445-1782,524.3-2437.9,218.6c-212.8-100.6-491.5-296-491.5-344.4c0-9.7,526.3-541.8,1170.6-1186l1170.6-1170.6l-1664-1664l-1664-1664v-83.2c0-118,79.3-197.4,197.4-197.4h83.2l1664,1664l1664,1664l1174.5-1174.5l1174.5-1174.5l61.9,56.1c149,143.2,332.8,483.7,402.5,752.7c21.3,83.2,50.3,247.7,63.8,363.7c56.1,530.1-110.3,1255.7-423.7,1832.3l-87.1,162.5L7080.9,367.3L8089,1375.4l199.3-61.9c267-81.3,388.9-100.6,644.3-100.6c348.3,0,675.3,106.4,880.4,288.3l87.1,77.4L8187.7,3290.9c-942.3,942.3-1718.1,1714.3-1725.9,1714.3C6454,5005.2,6411.5,4960.7,6367,4904.5z" />
</g>
</svg>
